<?xml version="1.0" encoding="UTF-8" standalone="no"?>
<svg
   xmlns="http://www.w3.org/2000/svg"
   version="1.0"
   width="24"
   height="24"
   viewBox="0 0 1000 1000"
   preserveAspectRatio="xMidYMid meet"
   id="svg4564"
>
  <g
     transform="matrix(0.1,0,0,-0.1,-167.54002,1081.7426)"
     id="g4562"
     style="fill:#aaaaaa;stroke:none;fill-opacity:1">
    <path
       d="m 8413,10110 c -203,-17 -383,-69 -588,-170 -722,-356 -1074,-1198 -820,-1966 39,-120 145,-328 221,-434 86,-121 262,-295 384,-382 175,-124 400,-222 617,-268 141,-31 410,-38 561,-16 355,52 673,214 927,471 218,220 369,498 434,800 113,521 -44,1077 -415,1465 -279,292 -640,464 -1049,499 -131,12 -136,12 -272,1 z"
       id="path4558"
       style="fill:#aaaaaa;fill-opacity:1" />
    <path
       d="m 3354,8944 c -123,-262 -167,-394 -183,-552 -33,-314 91,-576 374,-796 96,-75 183,-130 293,-185 96,-48 95,-30 16,-197 -30,-64 -66,-150 -81,-192 -143,-425 4,-761 441,-1011 49,-27 94,-52 99,-54 6,-2 -15,-57 -45,-123 -67,-143 -93,-225 -108,-333 -18,-132 8,-265 73,-380 65,-115 227,-256 384,-335 29,-14 119,-51 200,-82 81,-30 152,-59 157,-64 10,-10 -18,-97 -99,-305 C 4557,3520 3992,2593 3262,1685 l -64,-79 61,-23 c 178,-66 451,-86 641,-45 173,37 340,110 466,202 257,190 744,656 1136,1087 1274,1401 2017,2730 2022,3618 1,244 -70,441 -232,639 -126,154 -375,336 -644,472 -97,49 -3198,1494 -3221,1501 -14,4 -28,-17 -73,-113 z"
       id="path4560"
       style="fill:#aaaaaa;fill-opacity:1" />
  </g>
</svg>
